<svg xmlns="http://www.w3.org/2000/svg" height="512" viewBox="0 1 511 511.999" width="512" xmlns:v="https://vecta.io/nano"><path d="M498.7 222.695c-.016-.012-.027-.027-.04-.04L289.805 13.81C280.902 4.902 269.066 0 256.477 0s-24.426 4.902-33.332 13.81L14.188 222.766c-18.28 18.387-18.25 48.22.1 66.56 8.38 8.383 19.44 13.234 31.273 13.746.484.047.97.07 1.457.07h8.32v153.695c0 30.418 24.75 55.164 55.168 55.164h81.71c8.285 0 15-6.72 15-15V376.5c0-13.88 11.293-25.168 25.172-25.168h48.195c13.88 0 25.168 11.29 25.168 25.168V497c0 8.28 6.715 15 15 15h81.71c30.422 0 55.168-24.746 55.168-55.164V303.14h7.72c12.586 0 24.422-4.902 33.332-13.812 18.36-18.367 18.367-48.254.027-66.633zm-21.242 45.422c-3.238 3.238-7.543 5.023-12.117 5.023h-22.72c-8.285 0-15 6.715-15 15v168.695c0 13.875-11.29 25.164-25.168 25.164h-66.71V376.5c0-30.418-24.746-55.168-55.168-55.168H232.38c-30.422 0-55.172 24.75-55.172 55.168V482h-66.71c-13.875 0-25.168-11.29-25.168-25.164V288.14c0-8.285-6.715-15-15-15H48a13.9 13.9 0 0 0-.703-.031c-4.47-.078-8.66-1.852-11.8-4.996-6.68-6.68-6.68-17.55 0-24.234L244.363 35.02A17 17 0 0 1 256.477 30c4.574 0 8.875 1.78 12.113 5.02l208.8 208.797c.03.03.066.063.098.094 6.645 6.69 6.633 17.54-.03 24.207zm0 0" fill="#f5f5f5"/></svg>