<svg xmlns="http://www.w3.org/2000/svg" viewBox="0 0 311.2 311.2" width="512" height="512" fill="#f5f5f5" xmlns:v="https://vecta.io/nano"><path d="M120 0H46.8c-4.4 0-8 1.6-10.8 4.4s-4.4 6.8-4.4 10.8V296c0 4.4 1.6 8 4.4 10.8s6.8 4.4 10.8 4.4H120c4.4 0 8-1.6 10.8-4.4s4.4-6.8 4.4-10.8V15.6c0-4.4-1.6-8-4.4-10.8C128 1.6 124.4 0 120 0zm-5.2 291.2H52.4V20.8h62.4v270.4zM275.2 4.8c-2.8-3.2-6.8-4.8-10.8-4.8h-73.2c-4.4 0-8 1.6-10.8 4.4s-4.4 6.8-4.4 10.8V296c0 4.4 1.6 8 4.4 10.8s6.8 4.4 10.8 4.4h73.2c4.4 0 8-1.6 10.8-4.4s4.4-6.8 4.4-10.8V15.6c0-4.4-1.6-8-4.4-10.8zm-16.4 286.4h-62.4V20.8h62.4v270.4z"/></svg>